HIERARCHY
ROOT Hips
{
	OFFSET 0.000000 0.000000 0.000000
	CHANNELS 6 Xposition Yposition Zposition Zrotation Yrotation Xrotation 
	JOINT LHipJoint
	{
		OFFSET 0.000000 0.000000 0.000000
		CHANNELS 3 Zrotation Yrotation Xrotation
		JOINT LeftUpLeg
		{
			OFFSET 8.178360 -10.767780 5.035740
			CHANNELS 3 Zrotation Yrotation Xrotation
			JOINT LeftLeg
			{
				OFFSET 14.688660 -40.356780 0.000000
				CHANNELS 3 Zrotation Yrotation Xrotation
				JOINT LeftFoot
				{
					OFFSET 15.373200 -42.237540 0.000000
					CHANNELS 3 Zrotation Yrotation Xrotation
					JOINT LeftToeBase
					{
						OFFSET 0.945840 -2.598660 13.935300
						CHANNELS 3 Zrotation Yrotation Xrotation
						End Site
						{
							OFFSET 0.000000 0.000000 0.000000
						}
					}
				}
			}
		}
	}
	JOINT RHipJoint
	{
		OFFSET 0.000000 0.000000 0.000000
		CHANNELS 3 Zrotation Yrotation Xrotation
		JOINT RightUpLeg
		{
			OFFSET -7.833120 -10.767780 5.035740
			CHANNELS 3 Zrotation Yrotation Xrotation
			JOINT RightLeg
			{
				OFFSET -15.255180 -41.913300 0.000000
				CHANNELS 3 Zrotation Yrotation Xrotation
				JOINT RightFoot
				{
					OFFSET -15.409560 -42.337380 0.000000
					CHANNELS 3 Zrotation Yrotation Xrotation
					JOINT RightToeBase
					{
						OFFSET -0.988380 -2.715540 14.178900
						CHANNELS 3 Zrotation Yrotation Xrotation
						End Site
						{
							OFFSET 0.000000 0.000000 0.000000
						}
					}
				}
			}
		}
	}
	JOINT LowerBack
	{
		OFFSET 0.000000 0.000000 0.000000
		CHANNELS 3 Zrotation Yrotation Xrotation
		JOINT Spine
		{
			OFFSET 0.169620 12.213540 -1.160280
			CHANNELS 3 Zrotation Yrotation Xrotation
			JOINT Spine1
			{
				OFFSET 0.340320 12.293100 -0.256500
				CHANNELS 3 Zrotation Yrotation Xrotation
				JOINT Neck
				{
					OFFSET 0.000000 0.000000 0.000000
					CHANNELS 3 Zrotation Yrotation Xrotation
					JOINT Neck1
					{
						OFFSET -0.325020 10.477440 1.032120
						CHANNELS 3 Zrotation Yrotation Xrotation
						JOINT Head
						{
							OFFSET 0.624420 10.568160 -0.743820
							CHANNELS 3 Zrotation Yrotation Xrotation
							End Site
							{
								OFFSET 0.000000 0.000000 0.000000
							}
						}
					}
				}
				JOINT LeftShoulder
				{
					OFFSET 0.000000 0.000000 0.000000
					CHANNELS 3 Zrotation Yrotation Xrotation
					JOINT LeftArm
					{
						OFFSET 20.174460 7.205340 -1.867260
						CHANNELS 3 Zrotation Yrotation Xrotation
						JOINT LeftForeArm
						{
							OFFSET 29.898000 -0.000000 -0.000000
							CHANNELS 3 Zrotation Yrotation Xrotation
							JOINT LeftHand
							{
								OFFSET 20.901360 -0.000000 -0.000000
								CHANNELS 3 Zrotation Yrotation Xrotation
								JOINT LeftFingerBase
								{
									OFFSET 0.000000 0.000000 0.000000
									CHANNELS 3 Zrotation Yrotation Xrotation
									JOINT LeftHandIndex1
									{
										OFFSET 4.291560 -0.000000 -0.000000
										CHANNELS 3 Zrotation Yrotation Xrotation
										End Site
										{
											OFFSET 0.000000 0.000000 0.000000
										}
									}
								}
								JOINT LThumb
								{
									OFFSET 0.000000 0.000000 0.000000
									CHANNELS 3 Zrotation Yrotation Xrotation
									End Site
									{
										OFFSET 0.000000 0.000000 0.000000
									}
								}
							}
						}
					}
				}
				JOINT RightShoulder
				{
					OFFSET 0.000000 0.000000 0.000000
					CHANNELS 3 Zrotation Yrotation Xrotation
					JOINT RightArm
					{
						OFFSET -18.819600 8.244300 -2.427900
						CHANNELS 3 Zrotation Yrotation Xrotation
						JOINT RightForeArm
						{
							OFFSET -31.451400 -0.000000 -0.000000
							CHANNELS 3 Zrotation Yrotation Xrotation
							JOINT RightHand
							{
								OFFSET -20.665020 -0.000000 -0.000000
								CHANNELS 3 Zrotation Yrotation Xrotation
								JOINT RightFingerBase
								{
									OFFSET 0.000000 0.000000 0.000000
									CHANNELS 3 Zrotation Yrotation Xrotation
									JOINT RightHandIndex1
									{
										OFFSET -3.735180 -0.000000 -0.000000
										CHANNELS 3 Zrotation Yrotation Xrotation
										End Site
										{
											OFFSET 0.000000 0.000000 0.000000
										}
									}
								}
								JOINT RThumb
								{
									OFFSET 0.000000 0.000000 0.000000
									CHANNELS 3 Zrotation Yrotation Xrotation
									End Site
									{
										OFFSET 0.000000 0.000000 0.000000
									}
								}
							}
						}
					}
				}
			}
		}
	}
}
MOTION
Frames:	4
Frame Time:	0.0333333
88.236012 105.564462 -195.847710 1.373105 -1.938342 0.029378 0.614229 2.010832 2.236094 -20.441876 -3.100170 1.201220 13.404738 17.674893 69.243271 1.966805 4.058949 33.393188 0.502800 4.545600 12.617000 -1.437405 -1.690288 0.551416 24.197239 8.707135 -24.911919 -3.479705 -12.443876 36.776300 2.603584 -11.665622 2.288590 -0.003400 -0.378400 1.039600 -0.112136 0.146200 10.444462 1.346810 0.159184 -2.202515 3.534026 0.273965 -4.874577 -7.115677 -2.099945 -10.662964 3.336877 -1.814094 9.600040 2.637800 -1.261300 7.903000 -2.391722 2.610226 -2.264914 -86.504156 11.165136 40.217315 110.860744 -62.851395 -82.438785 -0.549971 -1.231434 -15.339127 18.220321 4.563308 1.943700 -7.125000 0.000000 0.000000 -6.381400 35.873200 1.438800 0.134313 -2.087236 -1.579394 82.515945 -20.984544 39.199857 -134.718396 51.825918 -100.194348 0.814237 -1.126110 -11.484365 -5.235318 20.741380 -2.180600 7.125000 0.000000 0.000000 14.446900 -8.438900 12.588100 
88.073646 103.991862 -186.634818 -0.877701 -1.389207 -0.192310 1.104216 1.779090 1.626045 -15.981620 -4.113701 -8.714996 17.241026 18.971269 81.693929 1.104155 1.120000 23.932372 0.131200 -2.334700 -6.431600 -1.861378 -1.788805 0.762734 27.612138 7.843046 -22.221452 -5.054935 -13.861317 43.152033 2.473361 -11.092956 -4.992813 -0.007400 0.556700 -1.529700 2.170848 0.104668 10.516613 1.628382 0.402119 -1.925537 3.301311 0.380232 -3.939669 -7.056813 -2.294810 -11.389921 3.380996 -2.050656 9.598190 2.621700 -1.351300 8.036700 -2.505775 2.702754 -2.251076 -88.671575 11.377449 37.666489 99.475423 -64.003201 -74.892102 -0.347138 -1.607249 -21.086894 18.592731 6.073216 2.639600 -7.125000 0.000000 0.000000 -6.249800 37.840300 1.106800 0.467736 -2.106746 -1.646364 79.352125 -12.075379 41.273392 -128.009936 55.122107 -95.519901 1.044220 -0.982354 -14.138941 -7.124910 21.760724 -3.092700 7.125000 0.000000 0.000000 13.155200 -7.337400 11.687800 
87.932436 103.096080 -177.609792 -1.342922 -1.833166 -0.581857 1.382094 1.517485 1.192517 -13.461637 -3.450203 -18.745501 19.232531 19.634515 87.676230 0.811731 0.106494 19.001106 0.243100 -3.172900 -8.760400 -1.956882 -1.911004 0.986290 28.913047 5.938183 -17.092183 -5.429178 -13.881980 44.520124 2.355456 -11.247725 -10.146321 -0.148000 2.479300 -6.832200 2.328969 1.083126 11.279397 1.696813 1.743368 -1.893544 3.477575 1.090203 -4.326926 -7.098694 -2.669435 -11.569737 3.391973 -2.531151 10.025892 2.561400 -1.595400 8.378400 -2.495386 2.692856 -2.406894 -88.900624 14.362124 38.570288 94.630265 -63.993074 -71.460316 -0.400507 -1.890847 -21.133052 21.766348 7.429188 3.809300 -7.125000 0.000000 0.000000 -3.581400 39.810600 0.458800 0.536183 -2.003330 -1.656898 77.473332 -7.662184 42.305109 -128.952348 54.718097 -96.255869 0.852426 -0.938540 -11.903601 -5.616455 19.513382 -2.206900 7.125000 0.000000 0.000000 14.187500 -9.765500 11.958000 
88.071780 103.099812 -168.532506 -2.823651 -2.574496 0.096096 1.609095 1.236634 0.800978 -10.741381 -2.599406 -28.211159 19.003253 20.195577 87.052023 0.804742 -2.216564 11.696368 0.689700 -5.309400 -14.793200 -1.913790 -2.018963 1.243712 30.837371 5.067434 -10.562475 -4.884482 -13.008737 42.274884 2.381724 -11.794412 -12.847572 -0.419800 4.158600 -11.523200 4.456221 2.303573 11.009238 1.610867 3.583076 -1.938480 2.133950 2.034399 -4.246087 -7.274616 -3.647654 -12.541510 4.065673 -3.789124 10.439594 2.858500 -2.138000 9.026800 -2.404671 2.800400 -2.513664 -86.788410 17.337113 41.191660 99.814245 -64.171802 -74.957728 -0.467747 -1.729808 -21.120140 21.426535 6.445368 3.271700 -7.125000 0.000000 0.000000 -3.746100 38.531400 0.597800 0.329427 -1.908457 -1.627524 77.209401 -5.417291 41.769776 -134.826401 51.784277 -100.198809 0.906957 -1.233111 -16.639845 -4.205813 23.358124 -1.981500 7.125000 0.000000 0.000000 15.088000 -5.823100 13.984700 
